<?xml version="1.0" standalone="no"?>
<!DOCTYPE svg PUBLIC "-//W3C//DTD SVG 20010904//EN"
 "http://www.w3.org/TR/2001/REC-SVG-20010904/DTD/svg10.dtd">
<svg version="1.0" xmlns="http://www.w3.org/2000/svg"
 width="527.000000pt" height="527.000000pt" viewBox="0 0 527.000000 527.000000"
 preserveAspectRatio="xMidYMid meet">
<metadata>
Created by potrace 1.14, written by Peter Selinger 2001-2017
</metadata>
<g transform="translate(0.000000,527.000000) scale(0.100000,-0.100000)"
fill="#000000" stroke="none">
<path d="M4554 5131 c4 -6 2 -19 -4 -28 -9 -15 -11 -15 -7 -2 4 13 -2 16 -28
16 -27 -1 -32 -4 -23 -15 8 -9 13 -10 18 -1 4 6 10 7 12 3 3 -5 -4 -18 -15
-28 -18 -17 -20 -18 -14 -2 5 13 1 19 -13 23 -11 3 -17 10 -13 17 4 7 1 6 -9
-1 -8 -7 -19 -9 -23 -5 -5 4 -5 1 -1 -6 4 -7 12 -10 17 -7 5 3 6 -1 3 -8 -6
-16 -20 -17 -43 -3 -10 6 -12 5 -7 -2 9 -15 1 -15 -27 0 -21 10 -21 10 -7 -7
14 -17 14 -17 -7 -7 -16 9 -23 9 -26 -1 -3 -6 -6 -3 -7 8 -1 18 -1 19 -11 3
-5 -10 -15 -18 -20 -18 -6 0 -7 6 -3 13 4 6 -4 2 -18 -11 -18 -16 -25 -18 -25
-8 0 8 5 12 11 9 6 -3 7 -2 3 2 -10 11 -39 16 -32 5 9 -15 -44 -17 -58 -3 -12
12 -16 13 -22 1 -5 -7 -5 -10 -1 -6 9 8 46 -22 46 -37 0 -5 -4 -4 -9 4 -6 9
-11 10 -15 2 -4 -6 -16 -11 -27 -11 -11 0 -18 4 -15 8 3 5 -1 9 -8 9 -9 0 -12
-7 -8 -16 5 -14 3 -14 -11 -2 -9 7 -17 9 -17 3 0 -5 -7 -13 -16 -16 -8 -3 -12
-2 -9 4 8 12 -55 4 -68 -9 -7 -7 -6 -15 2 -24 9 -12 6 -14 -16 -13 -16 0 -31
5 -35 11 -5 6 -8 2 -8 -9 0 -15 -3 -16 -15 -6 -11 9 -15 9 -15 1 0 -7 -5 -9
-10 -6 -6 4 -17 2 -25 -5 -10 -8 -15 -8 -21 1 -5 8 -3 9 6 4 9 -5 11 -4 6 4
-11 17 -25 4 -21 -19 2 -12 0 -18 -6 -15 -5 4 -9 0 -9 -8 0 -7 -7 -14 -15 -14
-8 0 -15 4 -15 9 0 5 -5 6 -10 3 -6 -4 -7 -11 -4 -17 5 -7 2 -8 -7 -2 -16 10
-44 15 -35 7 3 -3 -2 -12 -10 -20 -10 -11 -12 -19 -5 -27 8 -9 5 -12 -12 -12
-12 1 -25 8 -29 16 -5 12 -7 12 -7 -2 -1 -13 -9 -18 -31 -18 -29 0 -35 -8 -31
-38 2 -10 -2 -11 -16 -4 -14 8 -21 5 -34 -15 -14 -20 -17 -22 -23 -8 -3 9 -2
13 3 10 5 -3 12 -2 15 3 2 4 -6 8 -19 8 -13 0 -22 -3 -19 -7 2 -4 -1 -11 -7
-14 -5 -4 -8 -13 -6 -20 3 -7 -3 -12 -16 -11 -24 1 -61 -30 -52 -43 7 -12 -22
-8 -32 4 -4 4 -2 5 4 1 9 -5 11 -2 6 10 -5 13 -3 15 7 9 9 -6 11 -4 5 5 -6 10
-11 9 -21 -5 -7 -10 -11 -22 -8 -26 5 -8 -17 -14 -38 -10 -5 0 -8 -4 -8 -9 0
-6 -5 -10 -11 -10 -5 0 -7 6 -3 13 4 7 2 7 -7 -2 -11 -10 -11 -15 -1 -18 6 -3
12 -10 12 -16 0 -5 -3 -7 -7 -4 -3 4 -11 -1 -18 -10 -9 -13 -14 -13 -20 -3 -6
9 -4 11 6 5 12 -8 12 -6 0 8 -14 18 -26 23 -16 8 7 -13 -24 -29 -48 -26 -9 2
-15 -1 -11 -6 3 -5 9 -7 14 -4 4 3 7 -2 6 -12 -3 -19 -30 -31 -63 -28 -24 2
-31 -10 -10 -18 9 -3 9 -7 -2 -21 -7 -9 -19 -16 -25 -15 -32 4 -47 -2 -44 -18
2 -10 -3 -18 -10 -18 -7 0 -17 -7 -22 -15 -5 -8 -10 -10 -10 -4 0 6 7 17 15
24 8 7 15 18 14 24 0 7 -2 6 -6 -2 -2 -6 -10 -9 -15 -6 -6 4 -8 2 -4 -4 7 -11
-9 -25 -32 -28 -22 -4 -51 -35 -46 -49 3 -7 0 -16 -7 -21 -8 -4 -10 -3 -5 4 4
7 3 12 -3 12 -10 0 -36 -40 -33 -50 1 -3 -1 -5 -5 -5 -5 0 -13 -4 -20 -8 -7
-4 -24 -5 -38 -3 -14 3 -23 1 -20 -4 3 -4 -1 -11 -7 -13 -10 -4 -10 -6 0 -6 6
-1 12 -6 12 -12 0 -5 -4 -7 -10 -4 -5 3 -10 -1 -10 -9 0 -8 -5 -18 -12 -22 -6
-4 -8 -3 -5 3 4 6 -1 13 -11 15 -11 3 -19 0 -19 -8 0 -7 5 -10 10 -7 6 4 7 1
1 -8 -9 -14 -10 -19 -13 -41 -1 -10 -4 -9 -10 1 -5 8 -17 16 -25 17 -9 1 -14
-1 -11 -6 3 -4 -3 -11 -12 -14 -15 -6 -15 -9 -3 -16 8 -5 18 -6 24 -3 5 3 6 1
2 -5 -4 -6 -14 -8 -23 -5 -12 5 -14 3 -8 -7 6 -10 2 -12 -18 -8 -17 3 -24 1
-20 -5 4 -7 -1 -8 -12 -3 -15 5 -16 4 -6 -8 15 -18 5 -40 -15 -32 -8 3 -14 1
-14 -3 0 -5 -12 -8 -27 -6 -24 2 -25 1 -10 -10 19 -14 23 -35 6 -35 -5 0 -7 6
-3 13 5 8 3 8 -9 -2 -9 -7 -14 -18 -10 -25 4 -6 -1 -5 -10 3 -15 12 -17 12
-11 -3 5 -13 2 -15 -12 -9 -18 7 -18 6 -1 -11 23 -23 22 -29 -3 -16 -17 9 -19
8 -13 -7 6 -16 5 -17 -13 -3 -10 8 -16 10 -12 6 4 -5 3 -15 -3 -23 -9 -9 -8
-13 0 -13 6 0 11 -5 11 -11 0 -5 -4 -7 -10 -4 -6 3 -10 0 -10 -7 -1 -8 -6 -6
-15 6 -13 18 -15 18 -15 3 0 -10 -7 -20 -15 -23 -8 -4 -15 -10 -15 -16 0 -5 4
-7 8 -4 5 3 9 -1 9 -9 0 -18 -2 -18 -30 -3 -20 10 -21 10 -8 -6 12 -15 12 -17
0 -14 -9 2 -14 -5 -13 -19 0 -13 -3 -23 -8 -23 -5 0 -6 -6 -2 -12 6 -10 5 -10
-7 -1 -13 10 -19 10 -35 -3 -18 -14 -18 -15 6 -9 24 6 24 5 -2 -10 -16 -9 -28
-18 -28 -21 0 -3 6 -2 13 2 7 4 8 3 4 -2 -5 -5 -18 -9 -30 -9 -16 0 -22 -6
-22 -25 0 -16 -5 -24 -14 -22 -12 3 -12 1 0 -14 13 -16 12 -16 -9 -5 -12 6
-22 8 -21 4 3 -20 -2 -34 -10 -28 -6 3 -8 -3 -6 -13 2 -12 -3 -18 -16 -19 -10
-1 -19 2 -19 8 0 5 -4 9 -9 9 -4 0 -7 -11 -6 -25 3 -27 -8 -40 -25 -30 -8 5
-7 12 2 23 8 10 9 13 1 9 -18 -11 -44 -68 -36 -80 3 -6 1 -7 -5 -3 -7 4 -12 1
-13 -6 0 -7 -5 -3 -11 9 l-11 23 -13 -26 c-8 -14 -11 -31 -7 -37 3 -5 1 -7 -5
-3 -5 3 -12 1 -14 -6 -3 -7 -7 -5 -11 6 -5 12 -3 15 6 10 6 -4 9 -4 5 1 -4 4
0 15 10 23 14 12 13 12 -8 -1 -14 -8 -24 -18 -23 -23 0 -5 -3 -17 -8 -27 -8
-14 -14 -15 -32 -6 -12 7 -19 8 -15 4 4 -5 3 -14 -3 -22 -9 -10 -8 -13 0 -13
7 0 9 -5 6 -10 -4 -6 -11 -8 -16 -5 -5 4 -9 2 -9 -3 0 -5 -11 -7 -25 -4 -15 2
-25 0 -25 -7 0 -6 4 -11 8 -11 5 0 9 -7 9 -15 0 -13 -3 -13 -18 1 -16 15 -17
14 -12 -8 5 -23 5 -23 -11 -3 -10 11 -15 15 -12 9 8 -17 -20 -39 -30 -23 -5 8
-3 9 6 4 9 -6 11 -4 6 4 -6 9 -13 8 -27 -5 -16 -14 -18 -34 -3 -34 3 0 2 5 -2
11 -5 8 -1 8 13 0 11 -6 24 -7 28 -3 5 4 5 2 1 -5 -4 -7 -13 -10 -20 -7 -8 3
-17 0 -21 -6 -5 -8 -11 -7 -23 2 -13 11 -14 11 -8 0 6 -10 2 -13 -15 -10 -19
2 -23 -1 -21 -17 4 -19 3 -19 -16 3 -19 22 -39 31 -27 12 3 -5 1 -10 -4 -10
-6 0 -11 -5 -11 -11 0 -5 6 -7 13 -3 7 5 6 1 -3 -10 -8 -11 -16 -14 -18 -7 -2
7 -9 8 -21 1 -10 -5 -21 -6 -25 -3 -3 3 -6 1 -6 -5 0 -7 -5 -12 -11 -12 -5 0
-8 4 -5 8 4 8 -12 8 -58 3 -4 -1 -5 -9 -2 -18 5 -16 4 -16 -7 -3 -23 28 -39
23 -21 -7 10 -18 11 -22 2 -11 -8 10 -18 15 -21 11 -4 -3 -7 2 -7 13 0 15 -2
16 -9 4 -6 -8 -7 -19 -4 -25 4 -5 3 -7 -2 -3 -4 4 -16 3 -26 -3 -15 -7 -17 -6
-13 6 3 8 10 13 14 10 14 -9 23 16 11 28 -9 9 -10 7 -5 -8 7 -17 5 -18 -7 -8
-9 7 -20 9 -29 3 -9 -6 -18 -5 -23 3 -6 8 -7 8 -4 -3 2 -8 13 -14 23 -13 10 1
13 0 6 -3 -6 -3 -10 -9 -8 -13 3 -4 -1 -8 -9 -8 -8 0 -12 4 -9 9 3 4 -2 8 -11
8 -9 0 -13 -4 -10 -10 4 -6 -1 -7 -11 -3 -13 5 -15 3 -9 -8 8 -12 6 -12 -8 0
-9 7 -14 17 -11 22 3 5 -3 6 -12 2 -11 -4 -15 -3 -10 5 3 6 2 13 -3 16 -5 4
-12 2 -16 -4 -4 -6 -11 -7 -17 -4 -7 4 -8 2 -4 -4 4 -7 1 -12 -9 -12 -10 0
-13 -5 -9 -12 5 -9 2 -9 -9 1 -12 9 -17 10 -17 2 0 -7 -4 -9 -10 -6 -16 10
-12 23 8 21 9 0 18 4 20 9 3 13 -19 14 -35 2 -9 -6 -13 -5 -13 4 0 11 -2 11
-9 0 -8 -12 -12 -13 -25 -1 -9 7 -19 10 -23 7 -3 -4 -13 -2 -22 3 -10 5 -23 5
-31 0 -8 -5 -22 -4 -32 1 -12 6 -18 6 -18 -1 0 -5 -5 -10 -11 -10 -5 0 -8 4
-5 8 2 4 -11 6 -30 4 -22 -3 -31 -8 -27 -16 4 -6 -1 -5 -10 2 -9 8 -22 12 -28
10 -16 -5 -21 -38 -6 -38 7 0 6 -4 -3 -9 -8 -6 -17 -8 -21 -5 -4 2 -10 -3 -13
-12 -3 -9 -13 -14 -21 -11 -9 4 -12 1 -8 -8 4 -11 10 -12 26 -4 22 10 22 10 2
-6 -11 -9 -26 -20 -33 -24 -7 -4 -14 -15 -16 -24 -1 -9 -6 -20 -11 -24 -4 -4
-5 -2 -1 5 4 6 2 12 -3 12 -6 0 -11 -8 -11 -17 0 -15 -2 -16 -10 -3 -8 13 -10
12 -10 -3 0 -10 -4 -16 -9 -13 -5 3 -11 -1 -14 -9 -4 -9 -1 -12 9 -8 7 3 14 1
14 -5 0 -6 -11 -9 -24 -8 -20 3 -23 -1 -20 -20 3 -19 1 -22 -12 -17 -12 4 -15
3 -10 -5 6 -11 -12 -17 -37 -13 -4 1 -3 -8 3 -18 7 -13 7 -22 0 -26 -6 -4 -7
-12 -3 -18 3 -7 -3 -4 -14 6 -21 18 -22 18 -33 -3 -7 -12 -7 -20 -2 -16 6 4 8
-2 5 -14 -5 -17 -27 -26 -56 -21 -5 1 -6 -3 -2 -9 9 -14 -65 -111 -79 -104 -6
3 -2 -2 8 -10 23 -19 14 -21 -17 -4 -19 10 -20 9 -9 -4 10 -13 9 -20 -9 -39
-11 -13 -18 -19 -15 -13 3 6 -1 11 -9 11 -11 0 -12 -4 -4 -13 15 -19 3 -33
-24 -27 -18 4 -19 3 -7 -6 13 -10 13 -11 0 -12 -10 0 -8 -3 5 -9 11 -5 14 -9
8 -9 -7 -1 -13 -8 -13 -16 0 -8 -3 -14 -7 -14 -5 1 -19 0 -33 -1 -19 -2 -21
-3 -7 -7 18 -5 18 -5 0 -20 -10 -8 -13 -12 -6 -9 8 5 8 0 0 -19 -7 -14 -17
-25 -24 -25 -7 0 -10 -7 -7 -17 5 -15 4 -16 -5 -3 -8 11 -7 18 5 27 9 6 14 18
11 25 -4 11 -6 11 -6 0 -1 -7 -6 -10 -13 -6 -6 4 -8 3 -4 -4 3 -6 1 -14 -5
-17 -5 -4 -8 -13 -5 -21 3 -8 1 -14 -5 -14 -6 0 -6 -7 1 -20 6 -11 7 -20 3
-19 -20 3 -27 -2 -13 -12 13 -9 13 -10 0 -6 -8 2 -14 14 -14 26 1 12 -1 19 -5
16 -6 -7 -7 -12 -10 -41 0 -9 -6 -12 -13 -8 -7 5 -8 3 -2 -7 14 -24 14 -42 0
-29 -10 8 -12 4 -9 -17 2 -18 0 -22 -4 -13 -9 17 -33 25 -33 11 0 -5 6 -12 13
-14 9 -4 9 -6 0 -6 -7 -1 -13 -8 -13 -17 0 -9 -5 -12 -12 -8 -7 5 -8 3 -2 -7
20 -32 3 -56 -30 -43 -12 4 -14 -1 -10 -22 5 -25 4 -26 -13 -13 -17 13 -17 13
-3 -5 11 -15 12 -20 3 -23 -7 -3 -13 -9 -13 -14 0 -6 4 -7 10 -4 5 3 10 1 10
-4 0 -6 -5 -11 -11 -11 -5 0 -7 -5 -3 -12 4 -7 3 -8 -5 -4 -6 4 -18 2 -27 -4
-12 -11 -12 -14 3 -26 17 -12 17 -13 -2 -10 -16 3 -20 -2 -21 -25 -1 -17 3
-26 9 -22 6 4 7 1 3 -6 -5 -7 -11 -10 -14 -7 -3 3 -15 -2 -26 -11 -20 -17 -20
-17 -7 0 7 9 10 17 5 17 -5 0 -3 4 5 9 9 6 10 11 2 15 -6 4 -11 2 -11 -3 0
-22 -2 -26 -16 -43 -12 -12 -12 -18 -3 -24 8 -5 10 -3 4 6 -5 9 -4 11 4 6 9
-6 9 -11 0 -22 -10 -12 -14 -12 -20 -2 -7 10 -9 8 -9 -5 0 -10 -4 -15 -10 -12
-6 4 -10 -5 -10 -20 0 -18 4 -24 13 -19 9 6 9 4 1 -7 -14 -19 -12 -55 4 -52 6
2 12 -3 12 -10 0 -8 4 -7 10 3 6 9 13 11 17 5 5 -5 15 -10 23 -10 8 0 18 5 23
10 4 6 10 5 16 -4 6 -9 11 -10 15 -2 4 6 12 9 17 6 5 -4 9 -1 9 5 0 7 -8 9
-20 5 -11 -3 -20 -2 -20 3 0 12 30 9 57 -6 19 -10 24 -9 37 10 14 19 16 19 22
5 3 -9 11 -17 17 -17 7 0 7 4 -1 12 -19 19 -14 24 17 24 17 0 28 -3 25 -8 -3
-4 2 -5 10 -2 9 3 13 11 10 18 -3 6 2 2 10 -8 9 -11 16 -15 16 -9 0 16 28 20
68 12 29 -6 33 -5 28 9 -6 16 -5 16 7 0 12 -15 14 -15 25 0 7 9 10 11 6 3 -5
-11 -1 -13 19 -9 18 3 24 1 20 -6 -4 -6 1 -5 10 3 11 9 17 10 17 2 0 -6 5 -11
11 -11 5 0 8 3 6 8 -3 4 5 7 18 7 19 0 21 -3 12 -14 -10 -12 -9 -12 10 -3 28
15 36 15 27 0 -6 -10 -5 -10 7 -1 8 7 29 10 47 8 19 -2 30 0 27 5 -4 6 3 7 17
2 13 -4 38 -7 56 -7 17 0 32 -2 32 -5 0 -4 7 -7 15 -7 12 0 12 3 2 15 -10 13
-9 14 8 5 11 -6 28 -9 38 -8 9 2 17 -2 17 -8 0 -8 4 -7 9 2 7 11 11 10 21 -5
8 -13 10 -14 7 -3 -4 13 3 16 41 15 26 0 50 -5 54 -11 4 -5 11 2 17 15 5 14
10 19 10 12 1 -9 8 -8 26 4 19 12 23 20 15 29 -8 9 -7 14 2 17 7 3 13 15 13
29 0 19 6 25 27 27 18 2 25 8 22 17 -3 8 -13 11 -22 9 -15 -5 -14 -4 1 6 9 6
21 9 26 5 6 -3 6 6 1 25 -9 33 -5 38 26 35 17 -1 20 4 19 26 -1 17 2 26 8 22
6 -4 8 1 4 11 -4 9 -3 15 2 11 5 -3 11 -2 14 2 2 5 2 2 1 -5 -2 -6 1 -12 6
-12 6 0 10 9 10 21 0 12 4 17 11 13 8 -4 8 -1 1 13 -9 17 -7 19 18 17 16 -1
34 -5 42 -10 11 -6 11 -5 0 9 -15 17 -18 17 48 3 11 -3 18 -1 15 4 -3 5 -1 11
5 15 6 3 10 -4 11 -17 1 -23 1 -23 9 2 5 17 8 19 9 8 1 -20 21 -25 21 -6 0 6
7 3 15 -8 13 -18 14 -18 8 5 -6 22 -5 23 9 10 9 -7 15 -16 13 -19 -3 -4 29 -4
68 -1 5 1 5 7 1 14 -6 9 -5 9 8 0 8 -7 17 -10 21 -7 3 3 14 -3 25 -14 18 -18
18 -20 1 -30 -15 -10 -17 -8 -14 8 2 11 0 20 -5 20 -11 0 -9 -43 3 -51 5 -3
-5 -6 -22 -5 -17 1 -31 5 -31 10 0 4 -8 6 -19 3 -10 -2 -25 0 -34 5 -13 7 -15
5 -11 -7 3 -8 1 -15 -5 -15 -6 0 -11 -7 -11 -15 0 -8 -9 -15 -19 -15 -27 0
-36 -17 -20 -38 10 -13 8 -12 -9 2 -12 11 -25 16 -29 13 -3 -4 -1 -7 5 -7 7 0
12 -10 12 -22 0 -14 -3 -18 -8 -11 -12 18 -44 -10 -36 -33 4 -15 1 -13 -16 6
-20 23 -20 23 -10 2 9 -19 8 -24 -14 -33 -13 -6 -22 -17 -20 -24 3 -6 -3 -18
-13 -26 -17 -13 -17 -13 -3 6 14 18 13 19 -1 8 -9 -7 -19 -10 -23 -6 -4 4 -4
0 0 -10 3 -9 12 -17 20 -17 7 0 16 -11 20 -25 3 -14 11 -25 18 -25 6 -1 0 -7
-14 -16 -24 -14 -24 -15 -2 -9 21 6 22 5 10 -14 -7 -11 -15 -17 -18 -12 -7 11
-41 10 -34 -1 3 -5 10 -6 15 -3 5 4 9 1 9 -4 0 -6 -7 -11 -15 -11 -9 0 -18 -7
-22 -16 -3 -8 -12 -13 -19 -10 -8 3 -14 -1 -14 -9 0 -8 -6 -15 -14 -15 -8 0
-18 -4 -21 -10 -3 -6 1 -7 9 -4 9 3 16 2 16 -3 0 -13 -33 -12 -42 1 -5 7 -8 7
-8 -3 0 -9 -8 -11 -26 -7 -22 6 -25 4 -20 -10 6 -15 4 -15 -11 -3 -15 13 -16
12 -11 -8 7 -27 -8 -41 -25 -24 -9 9 -8 11 3 8 8 -2 12 -2 8 0 -5 3 -8 12 -8
21 -1 15 -2 15 -11 -1 -6 -10 -8 -21 -5 -24 3 -4 -1 -15 -11 -25 -10 -12 -12
-18 -4 -18 7 0 9 -5 5 -11 -9 -16 -27 17 -19 34 4 6 -1 3 -9 -7 -11 -14 -13
-23 -5 -32 7 -9 6 -12 -8 -10 -10 2 -30 0 -44 -4 -17 -5 -32 -4 -39 3 -10 9
-11 9 -7 1 4 -7 0 -14 -8 -17 -8 -4 -12 -15 -10 -27 4 -18 2 -20 -11 -9 -12
10 -13 9 -8 -5 3 -9 2 -16 -4 -16 -6 0 -13 6 -15 13 -4 9 -6 9 -6 -1 -1 -8 -6
-10 -13 -6 -9 5 -9 2 1 -9 16 -20 25 -23 15 -4 -4 6 -3 8 1 4 5 -4 10 -14 11
-22 2 -12 -2 -12 -21 1 -22 15 -23 14 -18 -7 4 -13 2 -20 -4 -16 -5 3 -10 0
-10 -8 0 -8 3 -12 7 -10 3 2 7 -5 7 -16 1 -10 -2 -19 -7 -19 -4 0 -7 -11 -6
-25 2 -13 0 -22 -5 -20 -4 3 -9 2 -12 -2 -2 -5 -2 -2 -1 5 2 6 -1 12 -7 12 -6
0 -7 5 -3 12 5 7 3 8 -5 4 -7 -5 -10 -11 -7 -14 3 -3 0 -12 -7 -20 -10 -13 -9
-14 3 -7 12 7 13 6 3 -7 -7 -8 -9 -19 -5 -23 4 -5 2 -5 -5 -1 -6 3 -14 2 -18
-4 -4 -6 -10 -8 -15 -5 -5 3 -15 -1 -23 -9 -8 -8 -17 -12 -21 -9 -3 4 -6 1 -6
-6 0 -7 -4 -10 -9 -7 -5 4 -7 -8 -4 -25 2 -17 1 -29 -5 -26 -5 4 -9 0 -9 -8 0
-8 4 -15 9 -15 4 0 8 -4 8 -9 0 -14 -45 -61 -59 -61 -8 0 -9 -5 -2 -19 13 -23
5 -31 -32 -31 -26 0 -29 -3 -25 -24 4 -20 1 -23 -19 -21 -18 2 -23 -3 -23 -19
0 -17 -2 -18 -10 -6 -6 9 -10 10 -10 3 0 -6 5 -15 10 -18 6 -4 8 -11 4 -16 -3
-5 -9 -7 -14 -4 -5 3 -12 0 -16 -6 -4 -7 -3 -9 2 -6 6 3 16 2 24 -4 12 -7 12
-9 1 -9 -7 0 -11 -6 -8 -14 3 -8 2 -28 -2 -43 -5 -16 -5 -38 0 -50 5 -13 4
-25 -1 -28 -5 -3 -7 -13 -4 -23 5 -14 4 -15 -5 -2 -10 14 -16 7 -12 -13 1 -5
-3 -6 -9 -2 -6 3 -8 11 -5 16 4 5 1 9 -5 9 -6 0 -8 -11 -6 -26 4 -19 1 -24
-10 -20 -7 3 -14 0 -14 -7 0 -8 -3 -8 -9 2 -7 11 -11 10 -19 -6 -8 -15 -8 -24
1 -33 10 -12 9 -12 -4 -2 -9 6 -19 8 -24 4 -4 -4 -3 3 4 15 19 38 12 39 -13 2
-15 -21 -23 -47 -22 -62 2 -15 -2 -27 -8 -27 -6 0 -5 -4 3 -9 11 -7 10 -11 -5
-20 -17 -9 -17 -10 6 -11 14 0 20 -3 14 -8 -7 -4 -11 -35 -9 -80 1 -40 -2 -75
-7 -78 -4 -3 -6 -10 -3 -15 4 -5 0 -9 -7 -9 -9 0 -9 -3 2 -10 13 -8 13 -13 -2
-38 -10 -16 -14 -32 -11 -36 4 -4 0 -4 -10 -1 -15 6 -15 9 -2 22 9 8 12 19 9
25 -3 5 -12 -1 -19 -14 -10 -19 -9 -26 4 -42 9 -11 11 -16 5 -13 -7 4 -14 0
-18 -8 -3 -10 1 -15 12 -16 9 0 12 -3 5 -5 -7 -3 -9 -12 -6 -21 4 -10 2 -14
-4 -10 -5 3 -10 0 -10 -8 0 -8 5 -15 10 -15 6 0 6 -5 0 -12 -13 -16 -13 -48
-1 -48 5 0 2 -7 -7 -16 -12 -12 -13 -20 -5 -29 9 -10 6 -14 -12 -17 -16 -2
-23 -10 -25 -28 -1 -14 -3 -30 -4 -35 -5 -18 11 -53 28 -59 13 -5 14 -4 3 9
-7 8 -9 15 -4 15 4 0 0 6 -11 13 -14 11 -15 16 -5 22 8 5 11 4 7 -2 -4 -6 0
-14 9 -17 8 -3 12 -10 9 -16 -3 -5 -2 -10 3 -10 18 0 22 14 7 30 -13 14 -13
17 0 17 8 0 12 -4 9 -9 -3 -4 0 -8 5 -8 6 0 11 5 11 10 0 6 5 10 11 10 5 0 8
-4 4 -9 -3 -5 -1 -13 5 -16 6 -4 9 -1 8 7 -2 7 5 12 14 12 10 -1 15 3 11 9 -4
6 0 8 10 4 9 -3 19 -1 23 5 4 6 3 8 -3 5 -6 -4 -13 2 -16 13 -4 17 -2 18 15 9
16 -9 19 -8 13 2 -6 9 -2 11 13 7 15 -4 25 0 32 10 8 15 9 15 10 -3 0 -15 2
-17 9 -7 10 17 22 17 32 1 6 -11 9 -10 15 4 3 9 10 14 15 11 5 -3 7 -10 4 -15
-3 -5 1 -6 10 -3 11 5 13 10 5 19 -8 10 -8 15 1 21 7 4 9 3 6 -3 -7 -11 28
-45 37 -36 3 4 0 13 -7 21 -11 13 -9 14 10 2 12 -8 19 -18 16 -24 -4 -5 -1 -6
8 -1 21 14 59 15 59 2 0 -8 3 -8 12 1 16 16 31 15 22 0 -5 -9 -3 -9 9 1 9 7
14 18 10 24 -3 6 -1 7 5 3 6 -4 8 -14 5 -23 -5 -11 0 -10 16 6 12 12 27 19 33
15 6 -4 8 -3 5 4 -4 5 -17 8 -30 5 -18 -4 -16 -2 7 11 15 9 37 16 47 16 13 0
19 7 19 21 0 11 7 27 15 35 15 16 21 6 8 -12 -5 -5 -1 -1 9 8 17 19 33 25 23
8 -3 -6 1 -7 10 -3 13 4 14 7 3 14 -10 6 -10 11 -1 20 9 9 16 9 29 -2 12 -9
15 -10 10 -2 -8 14 -8 14 49 17 22 1 45 -1 50 -5 7 -5 12 4 13 24 3 31 22 65
22 38 0 -11 3 -11 17 0 11 10 14 10 9 2 -4 -7 -2 -13 3 -13 6 0 11 5 11 10 0
6 5 10 11 10 5 0 8 -4 5 -9 -3 -5 1 -11 9 -14 9 -4 12 -1 9 7 -7 18 12 30 22
15 5 -8 3 -9 -6 -4 -9 5 -11 4 -6 -4 6 -9 11 -9 24 1 9 8 13 8 9 2 -4 -7 0
-14 8 -18 8 -3 14 -2 14 2 -4 22 2 42 11 37 5 -3 8 -11 6 -18 -1 -7 -1 -9 1
-4 3 4 13 7 24 7 11 0 16 5 13 13 -2 7 3 21 12 32 8 11 13 14 9 8 -4 -9 5 -12
34 -10 21 1 37 6 33 11 -3 5 2 6 12 3 11 -4 15 -3 11 4 -4 6 -13 8 -21 5 -8
-3 -11 0 -8 9 3 8 13 11 21 8 12 -5 14 -3 8 8 -7 12 -6 12 7 1 13 -10 18 -10
24 -1 5 8 3 9 -6 4 -9 -5 -11 -4 -6 3 5 9 13 9 28 1 12 -7 18 -7 14 -1 -3 6 0
13 6 15 10 4 9 8 -2 16 -13 9 -12 11 6 11 11 0 26 -6 34 -13 8 -6 6 -2 -5 11
-18 22 -18 23 0 16 13 -5 16 -4 11 4 -4 7 -2 12 6 12 9 0 9 3 -2 10 -9 6 -10
10 -3 10 7 0 10 9 8 21 -3 16 -1 18 8 10 13 -11 39 0 36 15 -4 21 2 35 12 28
8 -4 9 0 4 15 -4 13 -2 21 5 21 6 0 8 6 4 13 -4 6 3 3 15 -8 14 -12 21 -14 19
-6 -2 7 3 16 11 19 9 3 11 0 7 -9 -4 -8 -1 -6 7 4 11 14 16 15 20 5 5 -12 11
16 8 36 -1 5 5 6 14 2 9 -3 13 -2 10 4 -3 6 -1 10 5 10 6 0 8 5 4 11 -4 8 0 8
15 0 17 -9 21 -9 19 1 -2 7 -7 16 -13 20 -6 5 -5 8 3 8 7 0 10 5 6 11 -5 8 1
10 19 7 14 -3 26 -2 25 1 0 3 0 8 2 11 8 22 8 50 0 45 -5 -3 -2 7 8 24 19 34
30 34 11 -1 -6 -12 -8 -20 -4 -16 5 4 13 3 20 -2 8 -7 12 -5 12 5 0 8 -4 12
-9 9 -11 -7 -10 3 3 27 6 12 17 18 25 15 8 -3 14 -1 14 4 0 6 -8 10 -17 11
-11 0 -13 3 -5 6 6 2 10 9 7 13 -3 5 0 12 6 16 8 4 9 3 5 -4 -4 -7 -2 -12 3
-12 6 0 11 6 11 13 0 8 4 7 10 -3 8 -12 10 -11 11 8 3 42 4 45 23 48 10 1 24
8 30 15 8 9 8 10 -1 5 -8 -4 -8 0 0 19 7 14 16 25 20 25 5 0 5 -6 1 -12 -4 -7
2 -5 13 5 11 9 23 14 28 10 4 -5 2 2 -6 14 -7 12 -18 19 -24 16 -5 -4 -7 -2
-2 2 4 5 17 10 29 12 31 5 50 24 43 42 -3 8 -3 12 1 8 4 -4 14 -2 21 5 10 8
17 8 21 1 4 -6 14 -3 27 10 11 11 14 17 8 13 -9 -5 -11 -2 -7 8 3 9 9 15 12
14 28 -3 43 4 38 17 -4 10 1 15 17 16 l22 0 -22 9 c-27 11 -29 17 -6 17 39 0
45 3 39 21 -5 14 -3 13 10 -3 15 -19 15 -19 9 6 -4 17 -2 30 6 35 9 5 11 2 6
-9 -4 -11 -2 -14 8 -10 8 3 12 10 8 16 -4 6 0 8 9 5 9 -4 15 0 15 8 0 8 -4 14
-9 14 -5 0 -6 5 -3 10 4 6 16 8 28 5 12 -4 18 -3 12 2 -18 14 -15 32 4 28 10
-2 18 3 18 10 0 8 -4 12 -9 9 -4 -3 -8 0 -8 5 0 6 9 11 19 11 11 0 22 6 24 13
3 6 6 2 6 -10 1 -12 7 -23 14 -26 9 -3 9 -7 -1 -19 -10 -13 -9 -18 3 -28 13
-11 13 -15 3 -21 -11 -7 -11 -9 0 -9 8 0 10 -5 6 -13 -6 -9 -4 -9 7 1 20 18
25 15 25 -18 0 -16 -4 -30 -9 -30 -5 0 -4 -7 3 -15 8 -9 8 -15 2 -15 -15 0
-21 23 -10 43 17 34 3 25 -25 -15 -16 -22 -24 -37 -18 -34 6 4 9 -5 8 -23 -1
-16 -5 -27 -9 -25 -3 2 -8 -1 -10 -8 -3 -7 -7 -5 -11 6 -4 9 -3 15 2 12 5 -3
11 0 14 7 3 7 -3 13 -13 13 -10 0 -17 -4 -14 -7 2 -4 0 -11 -6 -14 -8 -5 -8
-11 -1 -19 8 -10 3 -13 -21 -12 -22 1 -33 -4 -34 -14 -2 -34 -5 -40 -15 -40
-8 0 -7 6 2 18 11 14 10 13 -9 -2 -14 -12 -22 -14 -22 -7 0 9 -5 8 -15 -3 -18
-18 -20 -30 -2 -20 7 4 9 3 4 -2 -5 -5 -13 -10 -18 -10 -5 -1 -14 -2 -20 -3
-5 0 -7 -7 -3 -13 5 -9 2 -8 -9 1 -15 12 -17 12 -11 -3 5 -12 2 -15 -12 -9
-12 4 -15 3 -10 -5 5 -9 1 -10 -16 -3 -20 7 -23 5 -24 -15 -1 -13 3 -24 10
-24 6 0 5 -4 -3 -9 -18 -11 -43 -3 -34 12 3 5 1 7 -4 4 -6 -4 -10 -20 -9 -37
1 -16 -3 -30 -8 -30 -8 0 -8 -3 -1 -8 6 -4 10 -24 9 -45 -1 -30 2 -37 13 -33
8 3 11 1 8 -4 -3 -6 -14 -10 -23 -10 -14 0 -13 -2 3 -13 12 -9 14 -16 7 -21
-6 -4 -9 -13 -6 -21 4 -8 10 -12 15 -9 15 9 10 -3 -8 -17 -10 -8 -14 -9 -10
-2 4 6 3 14 -2 17 -5 4 -8 -2 -6 -11 1 -10 8 -17 14 -16 10 3 15 -11 12 -31
-1 -4 4 -14 10 -22 7 -9 8 -14 1 -14 -6 0 -12 6 -15 13 -4 9 -7 9 -18 -1 -8
-7 -9 -13 -4 -12 22 5 27 -1 15 -15 -10 -12 -10 -19 -2 -27 7 -7 8 -17 2 -28
-6 -12 -5 -17 4 -17 8 0 12 10 10 24 -1 12 3 26 9 30 7 3 9 3 5 -2 -4 -4 -2
-15 5 -23 9 -13 9 -14 0 -8 -18 10 -16 -9 2 -27 13 -13 13 -16 -1 -21 -8 -3
-13 -2 -9 3 6 11 -21 8 -32 -3 -4 -4 -3 -7 2 -6 22 5 29 -1 15 -11 -12 -8 -11
-9 6 -5 14 4 21 2 21 -8 0 -9 -5 -12 -11 -9 -6 4 -3 -2 6 -13 12 -13 14 -24 8
-34 -8 -13 -10 -12 -10 3 0 19 -15 23 -26 5 -5 -7 -3 -8 6 -3 10 6 12 4 7 -8
-3 -9 -3 -16 1 -16 20 3 32 -2 27 -11 -4 -6 -12 -7 -18 -3 -7 4 -6 0 2 -10 7
-9 10 -17 5 -17 -5 0 -2 -5 6 -10 11 -7 11 -10 2 -10 -7 0 -10 -5 -6 -12 4 -7
3 -8 -5 -4 -6 4 -8 13 -5 19 4 7 -4 2 -17 -11 -19 -18 -21 -24 -11 -31 19 -11
19 -15 3 -35 -12 -14 -12 -19 -1 -29 10 -10 11 -9 5 2 -6 10 -4 12 5 6 10 -6
10 -10 -2 -19 -8 -6 -13 -17 -10 -25 3 -9 0 -11 -8 -6 -9 5 -11 4 -6 -4 4 -6
12 -8 18 -5 5 4 2 -6 -8 -22 -11 -15 -13 -25 -6 -21 6 5 12 4 12 -2 0 -5 -4
-12 -9 -16 -6 -3 -9 -14 -8 -25 1 -10 5 -17 9 -14 4 3 5 11 1 19 -3 8 0 15 5
15 6 0 8 -10 5 -23 -2 -12 -6 -31 -6 -42 -1 -11 -6 -23 -12 -27 -5 -4 -1 -8
10 -8 17 0 17 -2 5 -10 -11 -7 -11 -10 -2 -10 7 0 10 -4 7 -10 -3 -6 1 -7 9
-4 9 3 13 10 10 15 -3 5 5 5 18 0 13 -4 32 -7 43 -5 20 3 20 3 1 -12 -11 -8
-16 -14 -11 -14 5 0 16 7 26 16 9 8 26 16 37 17 12 1 18 6 15 15 -4 9 -9 10
-16 3 -6 -6 -16 -11 -21 -11 -6 0 -3 5 7 11 9 6 14 16 11 22 -5 9 -4 9 6 0 12
-11 44 -7 36 6 -2 3 15 6 39 6 24 0 41 3 39 6 -2 4 2 10 8 13 7 2 4 4 -7 3
-11 -2 -27 -7 -35 -12 -12 -7 -13 -6 -3 7 7 8 9 19 5 23 -4 5 -1 5 6 1 7 -4
12 -2 12 6 0 9 3 9 10 -2 9 -13 12 -13 24 3 8 10 16 14 17 9 2 -5 18 0 34 10
26 17 26 18 6 13 -21 -6 -22 -5 -10 8 8 8 20 12 28 9 10 -4 12 -1 6 9 -7 11
-6 12 7 2 17 -14 29 -8 22 12 -3 7 -1 16 4 19 5 3 9 0 8 -7 -2 -18 17 -20 20
-1 3 22 6 23 45 28 19 2 37 4 42 5 4 0 7 6 7 12 0 8 -6 7 -17 -2 -9 -8 -14 -9
-10 -2 4 6 4 13 0 16 -5 2 -2 2 6 0 8 -2 11 2 8 12 -4 8 -1 17 5 21 6 4 8 3 5
-3 -4 -6 -1 -16 7 -22 14 -11 26 -5 26 13 0 6 -5 4 -11 -4 -9 -13 -10 -13 -6
0 2 8 12 14 21 13 12 -1 16 4 12 15 -5 13 -2 12 9 -2 8 -11 15 -14 15 -7 0 7
4 10 8 7 5 -3 9 1 9 8 0 8 -6 12 -13 9 -6 -2 -14 -1 -17 4 -5 8 1 10 57 14 27
2 40 30 22 50 -9 11 -8 11 6 1 11 -9 18 -10 23 -2 3 5 15 10 26 10 10 0 19 5
19 11 0 5 -6 7 -12 3 -10 -6 -10 -5 -1 8 7 8 11 17 8 20 -3 2 2 5 10 5 8 0 12
-4 10 -8 -3 -4 2 -10 11 -13 8 -3 12 -2 9 4 -9 14 17 49 32 43 7 -3 10 -10 6
-17 -3 -7 -1 -6 7 1 17 16 22 43 8 43 -6 0 -7 -8 -3 -18 5 -13 3 -14 -6 -5
-18 17 -1 33 31 29 35 -4 44 2 28 21 -8 11 -7 12 5 8 10 -5 15 -1 14 12 -2 12
4 17 16 15 9 -2 17 2 17 8 0 6 6 8 13 4 9 -6 9 -4 -1 8 -11 13 -11 18 0 24 22
14 50 15 42 2 -5 -7 -3 -8 5 -4 7 5 10 13 8 20 -7 19 20 49 38 42 20 -7 39 34
21 47 -7 6 -4 7 7 3 9 -3 17 -1 17 4 0 5 10 10 22 12 16 2 23 10 23 28 0 21 4
24 39 23 30 0 40 4 43 18 3 11 9 19 14 19 5 0 9 6 9 14 0 9 7 12 20 9 17 -5
20 0 21 33 1 22 1 43 0 47 -1 5 3 6 9 2 5 -3 10 -2 10 4 0 5 -6 12 -12 14 -10
4 -9 8 2 16 8 6 10 11 4 11 -8 0 -11 28 -10 85 1 69 -2 85 -14 86 -10 0 -8 3
5 9 16 7 17 9 3 9 -9 1 -20 6 -23 11 -4 6 -3 10 2 9 4 -1 15 -1 23 1 11 1 9 4
-5 10 -15 7 -16 9 -4 9 20 1 17 49 -3 62 -11 7 -11 9 0 9 8 0 13 10 12 28 -5
72 1 146 10 132 5 -8 10 -10 10 -4 0 6 -3 14 -7 18 -9 9 -11 46 -2 46 4 0 9
-3 12 -7 2 -5 2 -2 0 6 -2 8 2 11 12 7 9 -3 14 -2 10 3 -3 5 1 12 7 14 10 4
10 6 0 6 -7 1 -11 5 -7 10 3 5 1 12 -4 16 -6 3 -8 -4 -6 -15 2 -11 0 -18 -6
-15 -5 4 -9 1 -9 -4 0 -6 -5 -11 -12 -11 -6 0 -3 9 7 20 14 15 15 20 4 20 -12
0 -12 2 1 9 8 6 18 7 24 4 5 -4 7 1 3 11 -5 11 -3 15 5 10 7 -5 9 1 4 19 -3
14 -1 29 4 32 6 4 8 11 5 16 -4 5 2 6 12 2 15 -6 16 -5 5 9 -11 14 -10 16 6
11 11 -2 23 0 26 6 4 6 2 11 -3 11 -6 0 -11 5 -11 11 0 6 6 9 14 6 10 -4 12 0
8 15 -4 17 -2 19 14 10 16 -9 20 -7 21 9 1 10 -3 19 -8 19 -6 0 -7 -5 -3 -12
4 -7 3 -8 -5 -4 -16 10 -4 26 20 26 10 0 19 5 19 11 0 5 -5 7 -11 3 -6 -3 -4
5 5 18 9 14 13 28 9 33 -5 4 3 2 16 -5 15 -8 21 -8 17 -1 -4 6 -1 11 6 11 9 0
9 3 -2 10 -14 9 -7 15 14 11 5 -1 3 5 -4 14 -12 14 -12 16 1 15 33 -5 48 1 51
23 2 16 9 22 25 21 13 -1 20 3 17 7 -3 5 4 9 16 9 17 0 20 4 15 23 -7 22 -7
22 9 2 9 -11 16 -15 15 -10 -4 27 3 33 27 29 18 -3 23 -1 18 7 -5 9 -2 10 9 6
21 -8 21 -3 1 17 -14 15 -14 16 5 16 12 0 21 4 21 10 0 5 7 7 15 4 8 -4 15 -1
15 5 0 6 8 11 18 12 10 0 12 3 5 6 -7 2 -13 9 -13 15 0 6 7 7 16 4 8 -3 12 -2
9 4 -3 6 1 10 10 10 10 0 13 -5 9 -12 -4 -7 -3 -8 5 -4 6 4 9 11 6 16 -8 13
22 19 35 7 7 -7 5 0 -4 14 -14 22 -14 26 -1 26 8 0 15 -6 15 -14 0 -7 4 -13
10 -13 5 0 6 7 3 17 -4 11 -3 14 5 9 7 -4 12 -2 12 5 0 7 7 4 15 -7 13 -16 14
-16 9 -1 -3 9 -1 17 5 17 6 0 11 5 11 11 0 5 -4 8 -9 5 -5 -4 -4 5 2 18 13 27
29 25 20 -2 -3 -11 1 -9 11 6 10 12 23 20 29 16 7 -3 5 1 -4 8 -14 11 -14 15
-2 27 8 7 20 10 28 7 19 -7 31 34 14 46 -11 8 -10 9 2 5 9 -3 22 0 28 6 9 9
14 8 22 -3 9 -12 10 -10 6 8 -4 16 -1 22 11 22 14 0 14 2 3 9 -9 6 -10 11 -2
15 6 4 11 4 11 -1 0 -4 5 -1 10 7 6 9 10 11 10 3 0 -7 7 -10 15 -7 14 6 14 8
-1 18 -13 10 -14 14 -2 24 8 6 25 13 39 15 13 2 23 8 22 13 -1 5 4 15 10 23 9
12 9 13 0 7 -7 -4 -13 -2 -13 3 0 6 14 11 31 11 16 0 28 4 25 8 -2 4 4 19 15
32 14 19 21 22 27 12 6 -9 9 -3 10 18 1 38 4 42 35 44 17 1 23 6 19 15 -3 8
-1 12 5 8 5 -3 10 0 10 8 0 8 -4 12 -8 9 -4 -2 -10 0 -13 5 -4 5 5 8 19 6 14
-1 28 2 31 7 3 4 10 5 16 2 7 -4 8 -2 4 5 -4 6 -11 9 -16 6 -4 -3 -10 2 -14
10 -3 8 0 17 6 21 7 4 8 3 4 -4 -4 -7 -2 -12 3 -12 9 0 15 19 13 41 -1 3 9 5
22 4 13 -2 23 3 23 10 0 7 5 27 13 44 11 27 15 29 28 19 12 -10 14 -10 8 0 -4
7 -2 12 6 12 8 0 14 11 13 28 0 16 5 26 13 24 12 -2 16 9 13 38 -2 13 0 13 8
1 5 -8 7 -21 3 -30 -3 -9 -2 -13 2 -10 8 8 19 56 18 84 0 11 2 15 4 9 3 -7 14
-10 24 -7 18 5 24 20 23 59 0 6 9 16 19 23 11 7 17 8 14 2 -4 -5 -1 -13 5 -17
8 -4 9 -3 5 4 -4 7 -3 12 2 12 5 0 9 7 9 15 0 8 -5 11 -11 8 -6 -4 -5 0 1 9 7
8 9 19 5 23 -4 5 -1 5 6 1 9 -6 12 -2 10 10 -2 15 3 18 22 16 18 -1 21 1 11 7
-17 11 -6 31 17 32 14 0 13 2 -3 9 -11 5 -14 9 -7 9 7 1 10 6 7 12 -4 6 -1 10
6 8 26 -3 39 1 39 12 0 8 -4 8 -14 0 -11 -9 -16 -9 -22 0 -4 7 -3 9 3 6 13 -8
36 17 25 28 -4 5 -1 5 6 1 8 -5 12 2 12 27 0 41 7 49 30 37 26 -14 32 0 14 28
-9 13 -11 21 -5 18 6 -4 14 1 18 10 4 10 2 19 -5 22 -7 2 -9 8 -6 13 3 6 12 2
20 -8 9 -12 13 -13 14 -5 0 7 5 10 10 7 6 -3 10 -1 10 5 0 7 -7 10 -15 6 -9
-3 -15 0 -15 8 0 8 9 12 23 11 20 -2 22 1 21 36 -1 21 5 46 13 56 13 15 14 16
9 1 -2 -9 1 -19 8 -21 8 -3 13 0 13 6 0 7 1 21 2 32 l2 20 9 -20 c7 -17 9 -17
9 -2 1 17 16 23 24 10 2 -5 2 -3 1 4 -2 6 0 14 4 16 4 2 2 3 -5 1 -16 -4 -10
26 8 37 9 5 10 9 2 9 -7 0 -10 9 -6 23 2 12 5 30 5 40 -1 11 4 15 11 10 7 -4
5 2 -3 12 -14 17 -13 18 2 12 10 -3 17 -3 16 1 -3 16 15 41 25 35 6 -3 7 -1 3
5 -4 6 -2 21 5 33 9 17 8 20 -2 14 -9 -6 -10 -3 -5 11 5 10 9 27 10 37 0 10 8
22 16 28 11 8 9 9 -10 4 -14 -3 -20 -3 -14 2 6 4 10 16 8 26 -1 9 2 15 6 12
14 -9 22 15 10 30 -8 10 -8 15 1 21 7 4 9 3 6 -3 -4 -6 -1 -16 6 -21 10 -8 16
-5 27 11 12 20 12 21 -3 8 -10 -8 -17 -9 -17 -3 0 6 4 13 9 16 5 3 7 15 4 27
-4 12 0 25 8 30 11 7 9 9 -6 9 -19 1 -19 1 -2 11 14 8 16 14 6 25 -9 11 -9 14
1 14 9 0 9 4 2 13 -7 8 -7 18 -2 27 5 9 4 20 -3 30 -7 10 -5 10 8 -2 15 -14
16 -20 5 -32 -8 -11 -9 -16 -1 -16 6 0 13 11 17 25 3 14 11 22 17 18 6 -3 7
-1 3 6 -4 6 -11 9 -16 6 -5 -3 -12 0 -16 6 -4 8 -3 9 4 5 7 -4 12 -2 12 5 0 8
4 9 13 0 11 -8 13 -6 12 12 -1 12 3 26 9 30 6 5 2 6 -10 3 -14 -4 -21 -2 -21
7 0 9 8 13 21 9 21 -4 21 -4 1 13 -15 13 -16 15 -3 11 9 -2 19 2 22 10 3 9 9
13 13 11 16 -10 10 98 -5 109 -12 9 -12 13 -2 19 9 5 11 4 6 -3 -4 -7 -3 -12
2 -12 6 0 10 59 10 145 -1 117 -4 145 -15 145 -11 0 -11 -4 -3 -20 7 -14 7
-20 0 -20 -5 0 -10 6 -11 13 0 6 -2 25 -4 41 -4 28 -4 28 18 10 l22 -19 -22
25 c-12 14 -22 28 -22 33 -1 11 -9 13 -18 3 -4 -5 -3 -7 3 -3 6 3 11 0 11 -7
0 -7 -6 -13 -13 -13 -7 0 -12 5 -11 11 1 5 -5 10 -13 11 -10 0 -15 10 -14 32
0 24 -3 30 -15 25 -12 -4 -11 0 4 18 l20 23 -25 -13 c-23 -12 -24 -12 -11 4 8
9 11 19 7 23 -3 3 -6 1 -6 -5 0 -6 -9 -10 -19 -9 -11 0 -17 6 -14 14 3 7 10
10 17 6 6 -3 7 -2 3 3 -5 5 -14 9 -20 9 -7 1 -11 5 -10 11 1 5 -7 10 -17 10
-10 0 -17 -3 -15 -6 2 -4 -2 -7 -10 -7 -8 0 -12 4 -9 9 3 4 -2 8 -11 8 -10 0
-14 5 -10 13 4 6 0 3 -9 -7 -12 -15 -19 -16 -29 -8 -8 7 -18 8 -22 4 -5 -4 -5
-1 -1 6 4 6 3 12 -3 12 -5 0 -12 -5 -14 -10 -3 -6 -4 -5 -3 2 2 7 11 12 20 12
9 -1 16 2 16 7 0 12 -37 11 -45 -1 -3 -5 -12 -10 -18 -10 -7 0 -6 4 3 10 8 5
12 12 8 15 -3 3 -13 -1 -22 -10 -14 -14 -16 -14 -16 -1 0 11 -6 13 -29 6 -21
-6 -31 -5 -35 3 -3 8 -5 7 -5 -2 -1 -11 -5 -10 -17 5 -8 10 -12 13 -9 6 6 -11
-11 -13 -84 -10 -61 2 -90 0 -87 -7 2 -6 -7 -11 -19 -11 -13 0 -22 3 -20 6 2
3 -5 12 -17 19 -11 7 -17 8 -14 2z m-518 -133 c5 -7 3 -8 -6 -3 -10 6 -12 4
-7 -8 4 -11 2 -14 -9 -10 -11 4 -12 9 -3 19 14 17 16 17 25 2z m-271 -108 c-3
-5 -1 -10 5 -10 6 0 8 -5 4 -11 -4 -8 -9 -7 -15 2 -7 12 -9 12 -9 0 0 -8 -3
-11 -6 -8 -4 4 -1 13 6 22 14 17 25 20 15 5z m-110 -70 c4 -6 -1 -7 -11 -3
-13 5 -15 3 -9 -7 5 -9 4 -11 -4 -6 -6 4 -9 12 -6 17 8 12 22 12 30 -1z m1570
-18 c-3 -3 -11 0 -18 7 -9 10 -8 11 6 5 10 -3 15 -9 12 -12z m-1688 -37 c0 -8
-4 -12 -9 -9 -5 3 -6 10 -3 15 9 13 12 11 12 -6z m-247 -149 c0 -3 -4 -8 -10
-11 -5 -3 -10 -1 -10 4 0 6 5 11 10 11 6 0 10 -2 10 -4z m1958 -71 c3 -3 -4
-4 -16 -2 -12 2 -24 6 -28 10 -4 3 4 4 16 2 12 -2 25 -7 28 -10z m-2 -50 c-2
-30 -10 -38 -39 -41 -12 -2 -16 0 -9 2 6 3 9 11 6 16 -4 6 -2 8 4 4 6 -3 13
-2 17 4 3 5 1 10 -6 10 -9 0 14 25 27 30 0 0 0 -11 0 -25z m-2220 -59 c-1 -18
-4 -22 -14 -14 -9 8 -9 14 -1 24 16 19 17 18 15 -10z m2159 -66 c-3 -5 -12
-10 -18 -10 -7 0 -6 4 3 10 19 12 23 12 15 0z m-2284 -37 c12 -16 12 -17 -2
-6 -9 7 -20 9 -24 5 -5 -4 -5 -1 -1 6 9 16 11 15 27 -5z m2169 -421 c0 -13
-12 -22 -22 -16 -10 6 -1 24 13 24 5 0 9 -4 9 -8z m-2736 -120 c2 -4 0 -14 -6
-22 -8 -12 -9 -12 -5 2 3 9 1 19 -6 22 -9 3 -9 5 0 5 6 1 14 -3 17 -7z m-49
-71 c3 -5 2 -12 -3 -15 -5 -3 -9 1 -9 9 0 17 3 19 12 6z m-547 -386 c-3 -3 -9
2 -12 12 -6 14 -5 15 5 6 7 -7 10 -15 7 -18z m-612 -30 c-1 -8 -5 -17 -8 -21
-5 -4 -4 16 1 34 3 9 9 -1 7 -13z m481 -2 c0 -9 -4 -10 -14 -2 -7 6 -13 12
-13 14 0 1 6 2 13 2 8 0 14 -6 14 -14z m-437 -3 c-8 -5 -19 -10 -25 -10 -5 0
-3 5 5 10 8 5 20 10 25 10 6 0 3 -5 -5 -10z m157 3 c-4 -3 -2 -11 3 -18 7 -8
5 -12 -5 -12 -8 0 -15 6 -15 12 0 12 10 25 18 25 3 0 2 -3 -1 -7z m-142 -23
c-3 -5 -12 -10 -18 -10 -7 0 -6 4 3 10 19 12 23 12 15 0z m3465 -132 c0 -4 -4
-8 -9 -8 -6 0 -12 4 -15 8 -3 5 1 9 9 9 8 0 15 -4 15 -9z m-170 -224 c0 -8
-19 -13 -24 -6 -3 5 1 9 9 9 8 0 15 -2 15 -3z m-69 -81 c13 -16 12 -17 -3 -4
-10 7 -18 15 -18 17 0 8 8 3 21 -13z m-4151 -447 c0 -3 -4 -8 -10 -11 -5 -3
-10 -1 -10 4 0 6 5 11 10 11 6 0 10 -2 10 -4z m1095 -26 c-9 -14 8 -13 23 2 9
9 12 9 12 0 0 -7 -5 -12 -11 -12 -5 0 -7 -5 -4 -10 4 -6 -5 -5 -20 2 -18 8
-22 14 -13 20 17 10 20 10 13 -2z m175 -20 c0 -5 -5 -10 -11 -10 -5 0 -7 5 -4
10 3 6 8 10 11 10 2 0 4 -4 4 -10z m115 -20 c3 -5 1 -10 -4 -10 -6 0 -11 5
-11 10 0 6 2 10 4 10 3 0 8 -4 11 -10z m2209 -18 c3 -5 -1 -9 -9 -9 -8 0 -12
4 -9 9 3 4 7 8 9 8 2 0 6 -4 9 -8z m-2754 -276 c0 -2 -7 -6 -15 -10 -8 -3 -15
-1 -15 4 0 6 7 10 15 10 8 0 15 -2 15 -4z m-1050 -46 c0 -5 1 -13 3 -17 1 -3
-6 -7 -15 -9 -10 -1 -18 2 -18 7 0 5 5 9 11 9 5 0 7 5 4 10 -3 6 -1 10 4 10 6
0 11 -4 11 -10z m164 -22 c-3 -5 -12 -4 -20 3 -7 6 -11 15 -8 21 3 5 12 4 20
-3 7 -6 11 -15 8 -21z m-119 -6 c-3 -3 -11 0 -18 7 -9 10 -8 11 6 5 10 -3 15
-9 12 -12z m834 -277 c-6 -6 -13 -5 -19 5 -6 9 -5 17 3 22 15 9 29 -14 16 -27z
m1451 -135 c0 -5 -2 -10 -4 -10 -3 0 -8 5 -11 10 -3 6 -1 10 4 10 6 0 11 -4
11 -10z m26 -22 c4 -7 3 -8 -4 -4 -7 4 -12 1 -12 -8 0 -9 6 -16 13 -17 8 0 8
-2 -2 -6 -10 -4 -10 -7 -1 -13 8 -5 7 -9 -5 -13 -9 -4 -14 -3 -11 2 3 5 -1 14
-9 21 -14 11 -14 15 1 31 20 22 21 22 30 7z m-1696 -120 c0 -7 -5 -6 -13 1 -8
6 -18 7 -22 3 -5 -4 -5 -2 -1 5 8 14 36 6 36 -9z m1303 -143 c0 -6 -7 -11 -16
-11 -16 -2 -16 -1 -1 3 14 4 15 7 3 15 -11 7 -11 9 -1 6 8 -2 14 -8 15 -13z
m-48 -57 c5 4 5 2 1 -5 -8 -14 -36 -6 -36 9 0 7 5 6 13 -1 8 -6 18 -7 22 -3z
m1262 -212 c-8 -16 -14 -21 -19 -13 -6 9 -8 8 -8 -2 0 -8 -3 -11 -7 -7 -6 5
31 44 44 46 0 0 -4 -11 -10 -24z m-1472 -66 c-3 -5 -12 -10 -18 -10 -7 0 -6 4
3 10 19 12 23 12 15 0z m330 -120 c-3 -5 -12 -10 -18 -10 -7 0 -6 4 3 10 19
12 23 12 15 0z m-1715 -84 c0 -2 -8 -10 -17 -17 -16 -13 -17 -12 -4 4 13 16
21 21 21 13z m1160 -11 c0 -12 -19 -12 -23 0 -4 9 -1 12 9 8 7 -3 14 -7 14 -8z
m-1167 -70 c-3 -9 -8 -14 -10 -11 -3 3 -2 9 2 15 9 16 15 13 8 -4z m-13 -55
c0 -5 -5 -10 -11 -10 -5 0 -7 5 -4 10 3 6 8 10 11 10 2 0 4 -4 4 -10z m983
-40 c3 -11 1 -18 -4 -14 -5 3 -9 12 -9 20 0 20 7 17 13 -6z m727 -36 c0 -8 -5
-12 -10 -9 -6 4 -8 11 -5 16 9 14 15 11 15 -7z m-885 -4 c-3 -5 -12 -10 -18
-10 -7 0 -6 4 3 10 19 12 23 12 15 0z m72 -7 c0 -9 -4 -10 -14 -2 -7 6 -13 12
-13 14 0 1 6 2 13 2 8 0 14 -6 14 -14z m824 -22 c-6 -10 -8 -21 -6 -25 3 -3 2
-3 -2 0 -11 8 -10 28 2 36 15 12 17 10 6 -11z m-1034 -45 c0 -15 -21 -16 -34
-1 -4 4 -3 5 4 1 6 -3 14 -2 18 4 8 14 12 13 12 -4z m1053 -20 c0 -2 -9 -6
-20 -9 -11 -3 -18 -1 -14 4 5 9 34 13 34 5z m-1730 -192 c0 -8 -19 -13 -24 -6
-3 5 1 9 9 9 8 0 15 -2 15 -3z"/>
<path d="M4996 5109 c2 -4 -1 -9 -8 -11 -7 -3 -8 -7 -2 -11 5 -3 15 2 21 12 9
14 8 18 -3 18 -7 0 -11 -4 -8 -8z"/>
<path d="M5190 4959 c0 -5 -4 -7 -10 -4 -5 3 -10 0 -10 -8 0 -7 7 -14 15 -14
8 0 15 9 15 19 0 10 -2 18 -5 18 -3 0 -5 -5 -5 -11z"/>
<path d="M3150 4536 c7 -7 13 -7 20 0 6 6 3 10 -10 10 -13 0 -16 -4 -10 -10z"/>
<path d="M5240 4426 c0 -8 4 -17 9 -20 5 -4 7 3 4 14 -6 23 -13 26 -13 6z"/>
<path d="M2922 4400 c3 -8 -2 -21 -11 -28 -14 -11 -13 -12 5 -3 12 6 25 7 30
3 5 -4 2 2 -6 13 -21 30 -23 31 -18 15z"/>
<path d="M5120 4074 c-9 -10 -9 -14 -1 -14 6 0 11 4 11 10 0 5 7 7 15 4 8 -4
15 -4 15 -1 0 13 -30 14 -40 1z"/>
<path d="M4953 3657 c0 -8 6 -14 14 -14 9 0 10 4 2 14 -6 7 -12 13 -14 13 -1
0 -2 -6 -2 -13z"/>
<path d="M2116 3628 c3 -5 10 -6 15 -3 13 9 11 12 -6 12 -8 0 -12 -4 -9 -9z"/>
<path d="M4840 3471 c0 -6 4 -13 10 -16 6 -3 7 1 4 9 -7 18 -14 21 -14 7z"/>
<path d="M1359 3311 c7 -5 10 -14 6 -21 -6 -9 -3 -9 14 -1 11 7 21 14 21 17 0
3 -4 3 -9 -1 -5 -3 -12 -1 -16 5 -3 5 -12 10 -18 10 -8 0 -7 -3 2 -9z"/>
<path d="M830 3190 c0 -5 5 -10 10 -10 6 0 10 5 10 10 0 6 -4 10 -10 10 -5 0
-10 -4 -10 -10z"/>
<path d="M4626 3112 c-2 -4 4 -8 14 -8 10 0 16 4 14 8 -3 4 -9 8 -14 8 -5 0
-11 -4 -14 -8z"/>
<path d="M675 3030 c-4 -6 -1 -9 7 -8 7 2 12 -3 10 -10 -1 -8 2 -11 8 -7 8 5
7 11 -1 21 -14 17 -16 17 -24 4z"/>
<path d="M550 2869 c0 -5 5 -7 10 -4 6 3 10 8 10 11 0 2 -4 4 -10 4 -5 0 -10
-5 -10 -11z"/>
<path d="M490 2789 c0 -5 5 -7 10 -4 6 3 10 8 10 11 0 2 -4 4 -10 4 -5 0 -10
-5 -10 -11z"/>
<path d="M4170 2580 c-9 -6 -10 -10 -3 -10 6 0 15 5 18 10 8 12 4 12 -15 0z"/>
<path d="M195 2361 c-3 -5 -2 -12 3 -15 5 -3 9 1 9 9 0 17 -3 19 -12 6z"/>
<path d="M1265 2021 c-3 -6 -5 -11 -3 -12 27 -6 38 -5 35 4 -5 15 -24 20 -32
8z"/>
<path d="M970 1987 c0 -3 15 -10 32 -16 18 -6 28 -7 23 -2 -12 10 -55 25 -55
18z"/>
<path d="M870 1972 c0 -4 10 -9 22 -9 18 -2 20 0 8 7 -18 12 -30 13 -30 2z"/>
<path d="M3486 1972 c-3 -5 1 -9 9 -9 8 0 12 4 9 9 -3 4 -7 8 -9 8 -2 0 -6 -4
-9 -8z"/>
<path d="M1195 1890 c-3 -5 -1 -10 4 -10 6 0 11 5 11 10 0 6 -2 10 -4 10 -3 0
-8 -4 -11 -10z"/>
<path d="M790 1568 c0 -4 4 -8 9 -8 6 0 12 4 15 8 3 5 -1 9 -9 9 -8 0 -15 -4
-15 -9z"/>
<path d="M735 1510 c-3 -5 -1 -10 5 -10 6 0 9 -4 5 -10 -3 -5 -13 -7 -23 -4
-14 5 -14 4 -2 -4 18 -13 41 3 33 24 -6 17 -10 17 -18 4z"/>
<path d="M455 1390 c-3 -5 -1 -10 4 -10 6 0 11 5 11 10 0 6 -2 10 -4 10 -3 0
-8 -4 -11 -10z"/>
<path d="M458 1362 c-16 -2 -28 -8 -28 -13 0 -6 5 -7 12 -3 7 4 8 3 4 -4 -7
-12 -36 -5 -36 9 0 5 -3 9 -7 9 -5 0 -9 -14 -10 -30 -1 -17 2 -30 8 -30 6 0 3
-8 -7 -17 -17 -17 -17 -18 1 -22 14 -2 15 -5 4 -12 -14 -9 22 -13 81 -11 19 1
21 -1 10 -8 -8 -5 -17 -7 -20 -5 -4 2 -7 -2 -7 -9 0 -7 6 -13 14 -13 7 0 11 2
9 5 -2 2 3 11 12 21 15 15 18 15 30 1 10 -13 11 -12 5 4 -5 14 -3 17 7 11 9
-6 11 -4 5 5 -6 10 -4 12 9 7 11 -4 15 -3 10 4 -3 6 -15 9 -25 6 -11 -3 -17
-1 -13 4 3 5 15 9 27 9 17 0 19 2 8 9 -13 8 -13 12 -1 28 8 10 11 15 6 11 -5
-4 -17 3 -28 15 -11 12 -17 16 -13 10 3 -7 1 -13 -4 -13 -6 0 -11 4 -11 9 0
12 -20 17 -52 13z"/>
<path d="M614 1332 c4 -3 14 -7 22 -8 9 -1 13 0 10 4 -4 3 -14 7 -22 8 -9 1
-13 0 -10 -4z"/>
<path d="M2140 1230 c-12 -7 -10 -9 8 -7 12 0 22 5 22 9 0 11 -12 10 -30 -2z"/>
<path d="M425 1130 c-3 -5 -13 -6 -23 -3 -9 3 -14 3 -10 -2 4 -4 -2 -19 -12
-33 -11 -13 -20 -30 -20 -36 0 -6 5 -4 10 4 5 8 10 13 11 10 6 -35 9 -44 17
-52 6 -6 12 -3 16 7 3 9 2 13 -3 10 -5 -3 -13 -1 -16 5 -4 6 -3 10 2 9 4 -1
16 1 27 6 20 9 39 -11 31 -33 -3 -7 0 -10 5 -7 13 8 13 -1 0 -25 -13 -25 4
-35 21 -13 12 14 12 16 0 8 -11 -6 -13 -4 -8 8 4 10 1 30 -5 45 -6 15 -10 31
-10 35 1 4 -5 10 -13 13 -8 4 -15 10 -15 15 0 4 7 6 15 3 10 -4 15 0 15 12 0
16 -2 17 -10 4 -9 -13 -14 -7 -11 13 1 10 -7 9 -14 -3z m-21 -51 c-11 -5 -13
-8 -5 -8 8 -1 12 -4 8 -7 -10 -10 -26 6 -21 21 3 8 12 11 22 8 13 -6 13 -8 -4
-14z"/>
<path d="M356 1115 c-3 -8 -1 -15 4 -15 6 0 10 7 10 15 0 8 -2 15 -4 15 -2 0
-6 -7 -10 -15z"/>
<path d="M473 1079 c-2 -23 3 -25 10 -4 4 8 3 16 -1 19 -4 3 -9 -4 -9 -15z"/>
<path d="M424 1031 c0 -15 3 -17 13 -9 7 6 10 14 7 19 -9 15 -20 10 -20 -10z"/>
<path d="M355 1030 c3 -5 8 -10 11 -10 2 0 4 5 4 10 0 6 -5 10 -11 10 -5 0 -7
-4 -4 -10z"/>
<path d="M3150 950 c0 -5 5 -10 11 -10 5 0 7 5 4 10 -3 6 -8 10 -11 10 -2 0
-4 -4 -4 -10z"/>
<path d="M2966 781 c-3 -5 1 -11 9 -14 9 -4 12 -1 8 9 -6 16 -10 17 -17 5z"/>
<path d="M1567 774 c-3 -5 1 -15 9 -22 16 -14 18 -5 5 17 -5 7 -11 9 -14 5z"/>
<path d="M2766 597 c3 -10 9 -15 12 -12 3 3 0 11 -7 18 -10 9 -11 8 -5 -6z"/>
<path d="M2036 572 c-3 -4 4 -9 15 -9 23 -2 25 3 4 10 -8 4 -16 3 -19 -1z"/>
<path d="M1174 442 c3 -5 -1 -15 -8 -21 -11 -9 -17 -9 -27 2 -11 12 -16 12
-27 1 -7 -8 -10 -20 -6 -26 6 -10 4 -10 -8 0 -14 11 -16 10 -11 -9 5 -17 3
-20 -7 -14 -8 5 -11 4 -6 -3 4 -6 14 -8 24 -5 15 6 15 5 3 -10 -7 -9 -10 -17
-5 -18 5 0 0 -4 -11 -9 -19 -8 -19 -9 3 -9 13 -1 21 -5 18 -9 -7 -12 37 -9 46
2 4 6 12 5 21 -2 11 -10 17 -9 27 2 10 13 8 14 -10 11 -13 -2 -20 -2 -16 2 3
3 1 11 -4 18 -7 8 -5 12 5 12 8 0 12 -4 9 -8 -2 -4 4 -7 15 -6 15 1 17 4 9 14
-8 10 -6 13 8 13 14 0 15 3 6 8 -7 5 -10 15 -7 24 4 9 -4 22 -21 33 -14 9 -24
13 -20 7z m31 -30 c-3 -3 -11 0 -18 7 -9 10 -8 11 6 5 10 -3 15 -9 12 -12z"/>
<path d="M2465 390 c-3 -6 1 -7 9 -4 18 7 21 14 7 14 -6 0 -13 -4 -16 -10z"/>
<path d="M755 250 c3 -5 8 -10 11 -10 2 0 4 5 4 10 0 6 -5 10 -11 10 -5 0 -7
-4 -4 -10z"/>
<path d="M2070 180 c-8 -5 -10 -10 -5 -10 6 0 17 5 25 10 8 5 11 10 5 10 -5 0
-17 -5 -25 -10z"/>
</g>
</svg>
